<?xml version="1.0" encoding="utf-8" ?>
<svg baseProfile="full" height="144" version="1.1" width="656" xmlns="http://www.w3.org/2000/svg" xmlns:ev="http://www.w3.org/2001/xml-events" xmlns:xlink="http://www.w3.org/1999/xlink"><defs /><polygon fill="#53a9ff" points="262,66.38764005203222 274,66.38764005203222 278,62.387640052032225 266,62.387640052032225" /><polygon fill="#448ae5" points="274,86 278,82 278,62.387640052032225 274,66.38764005203222" /><polygon fill="#4c9aff" points="262,86 266,82 266,62.387640052032225 262,66.38764005203222" /><polygon fill="#53a9ff" points="274,83.0981797734562 286,83.0981797734562 290,79.0981797734562 278,79.0981797734562" /><polygon fill="#448ae5" points="286,110 290,106 290,79.0981797734562 286,83.0981797734562" /><polygon fill="#4c9aff" points="274,110 278,106 278,79.0981797734562 274,83.0981797734562" /><polygon fill="#53a9ff" points="382,74.77528010406445 394,74.77528010406445 398,70.77528010406445 386,70.77528010406445" /><polygon fill="#448ae5" points="394,98 398,94 398,70.77528010406445 394,74.77528010406445" /><polygon fill="#4c9aff" points="382,98 386,94 386,70.77528010406445 382,74.77528010406445" /><polygon fill="#53a9ff" points="418,88.76604823551092 430,88.76604823551092 434,84.76604823551092 422,84.76604823551092" /><polygon fill="#448ae5" points="430,122 434,118 434,84.76604823551092 430,88.76604823551092" /><polygon fill="#4c9aff" points="418,122 422,118 422,84.76604823551092 418,88.76604823551092" /><polygon fill="#53a9ff" points="430,36.749775860294264 442,36.749775860294264 446,32.749775860294264 434,32.749775860294264" /><polygon fill="#448ae5" points="442,62 446,58 446,32.749775860294264 442,36.749775860294264" /><polygon fill="#4c9aff" points="430,62 434,58 434,32.749775860294264 430,36.749775860294264" /><polygon fill="#53a9ff" points="478,47.11751758333516 490,47.11751758333516 494,43.11751758333516 482,43.11751758333516" /><polygon fill="#448ae5" points="490,98 494,94 494,43.11751758333516 490,47.11751758333516" /><polygon fill="#4c9aff" points="478,98 482,94 482,43.11751758333516 478,47.11751758333516" /><polygon fill="#53a9ff" points="478,66.04722544766749 490,66.04722544766749 494,62.047225447667486 482,62.047225447667486" /><polygon fill="#448ae5" points="490,110 494,106 494,62.047225447667486 490,66.04722544766749" /><polygon fill="#4c9aff" points="478,110 482,106 482,62.047225447667486 478,66.04722544766749" /><polygon fill="#53a9ff" points="490,60.788787183395975 502,60.788787183395975 506,56.788787183395975 494,56.788787183395975" /><polygon fill="#448ae5" points="502,110 506,106 506,56.788787183395975 502,60.788787183395975" /><polygon fill="#4c9aff" points="490,110 494,106 494,56.788787183395975 490,60.788787183395975" /><polygon fill="#53a9ff" points="490,80.54916618862568 502,80.54916618862568 506,76.54916618862568 494,76.54916618862568" /><polygon fill="#448ae5" points="502,122 506,118 506,76.54916618862568 502,80.54916618862568" /><polygon fill="#4c9aff" points="490,122 494,118 494,76.54916618862568 490,80.54916618862568" /><polygon fill="#53a9ff" points="586,33.69632961682275 598,33.69632961682275 602,29.69632961682275 590,29.69632961682275" /><polygon fill="#448ae5" points="598,62 602,58 602,29.69632961682275 598,33.69632961682275" /><polygon fill="#4c9aff" points="586,62 590,58 590,29.69632961682275 586,33.69632961682275" /><polygon fill="#53a9ff" points="586,35.18904318714797 598,35.18904318714797 602,31.189043187147973 590,31.189043187147973" /><polygon fill="#448ae5" points="598,74 602,70 602,31.189043187147973 598,35.18904318714797" /><polygon fill="#4c9aff" points="586,74 590,70 590,31.189043187147973 586,35.18904318714797" /><polygon fill="#53a9ff" points="598,60.16547277349758 610,60.16547277349758 614,56.16547277349758 602,56.16547277349758" /><polygon fill="#448ae5" points="610,86 614,82 614,56.16547277349758 610,60.16547277349758" /><polygon fill="#4c9aff" points="598,86 602,82 602,56.16547277349758 598,60.16547277349758" /><polygon fill="#53a9ff" points="598,64.46922588692142 610,64.46922588692142 614,60.46922588692142 602,60.46922588692142" /><polygon fill="#448ae5" points="610,98 614,94 614,60.46922588692142 610,64.46922588692142" /><polygon fill="#4c9aff" points="598,98 602,94 602,60.46922588692142 598,64.46922588692142" /><polygon fill="#53a9ff" points="598,79.1134090206088 610,79.1134090206088 614,75.1134090206088 602,75.1134090206088" /><polygon fill="#448ae5" points="610,110 614,106 614,75.1134090206088 610,79.1134090206088" /><polygon fill="#4c9aff" points="598,110 602,106 602,75.1134090206088 598,79.1134090206088" /><polygon fill="#53a9ff" points="598,96.66218499539627 610,96.66218499539627 614,92.66218499539627 602,92.66218499539627" /><polygon fill="#448ae5" points="610,122 614,118 614,92.66218499539627 610,96.66218499539627" /><polygon fill="#4c9aff" points="598,122 602,118 602,92.66218499539627 598,96.66218499539627" /><polygon fill="#53a9ff" points="598,7.5310535086880535 610,7.5310535086880535 614,3.5310535086880535 602,3.5310535086880535" /><polygon fill="#448ae5" points="610,50 614,46 614,3.5310535086880535 610,7.5310535086880535" /><polygon fill="#4c9aff" points="598,50 602,46 602,3.5310535086880535 598,7.5310535086880535" /><polygon fill="#53a9ff" points="598,12.351963343244648 610,12.351963343244648 614,8.351963343244648 602,8.351963343244648" /><polygon fill="#448ae5" points="610,62 614,58 614,8.351963343244648 610,12.351963343244648" /><polygon fill="#4c9aff" points="598,62 602,58 602,8.351963343244648 598,12.351963343244648" /><polygon fill="#53a9ff" points="598,33.451431292709586 610,33.451431292709586 614,29.451431292709586 602,29.451431292709586" /><polygon fill="#448ae5" points="610,74 614,70 614,29.451431292709586 610,33.451431292709586" /><polygon fill="#4c9aff" points="598,74 602,70 602,29.451431292709586 598,33.451431292709586" /><polygon fill="#53a9ff" points="610,84.85686593895366 622,84.85686593895366 626,80.85686593895366 614,80.85686593895366" /><polygon fill="#448ae5" points="622,122 626,118 626,80.85686593895366 622,84.85686593895366" /><polygon fill="#4c9aff" points="610,122 614,118 614,80.85686593895366 610,84.85686593895366" /><polygon fill="#53a9ff" points="610,4.190110907615434 622,4.190110907615434 626,0.19011090761543414 614,0.19011090761543414" /><polygon fill="#448ae5" points="622,50 626,46 626,0.19011090761543414 622,4.190110907615434" /><polygon fill="#4c9aff" points="610,50 614,46 614,0.19011090761543414 610,4.190110907615434" /><polygon fill="#53a9ff" points="610,25.707022094524376 622,25.707022094524376 626,21.707022094524376 614,21.707022094524376" /><polygon fill="#448ae5" points="622,62 626,58 626,21.707022094524376 622,25.707022094524376" /><polygon fill="#4c9aff" points="610,62 614,58 614,21.707022094524376 610,25.707022094524376" /><polygon fill="#53a9ff" points="610,33.22201336313711 622,33.22201336313711 626,29.22201336313711 614,29.22201336313711" /><polygon fill="#448ae5" points="622,74 626,70 626,29.22201336313711 622,33.22201336313711" /><polygon fill="#4c9aff" points="610,74 614,70 614,29.22201336313711 610,33.22201336313711" /><polygon fill="#53a9ff" points="622,50.496250588459915 634,50.496250588459915 638,46.496250588459915 626,46.496250588459915" /><polygon fill="#448ae5" points="634,86 638,82 638,46.496250588459915 634,50.496250588459915" /><polygon fill="#4c9aff" points="622,86 626,82 626,46.496250588459915 622,50.496250588459915" /><polygon fill="#53a9ff" points="634,48.69704488311716 646,48.69704488311716 650,44.69704488311716 638,44.69704488311716" /><polygon fill="#448ae5" points="646,86 650,82 650,44.69704488311716 646,48.69704488311716" /><polygon fill="#4c9aff" points="634,86 638,82 638,44.69704488311716 634,48.69704488311716" /><polygon fill="#53a9ff" points="634,70.21274520352517 646,70.21274520352517 650,66.21274520352517 638,66.21274520352517" /><polygon fill="#448ae5" points="646,98 650,94 650,66.21274520352517 646,70.21274520352517" /><polygon fill="#4c9aff" points="634,98 638,94 638,66.21274520352517 634,70.21274520352517" /><polygon fill="#53a9ff" points="634,79.05384798623021 646,79.05384798623021 650,75.05384798623021 638,75.05384798623021" /><polygon fill="#448ae5" points="646,110 650,106 650,75.05384798623021 646,79.05384798623021" /><polygon fill="#4c9aff" points="634,110 638,106 638,75.05384798623021 634,79.05384798623021" /><polygon fill="#53a9ff" points="634,78.23106409864945 646,78.23106409864945 650,74.23106409864945 638,74.23106409864945" /><polygon fill="#448ae5" points="646,122 650,118 650,74.23106409864945 646,78.23106409864945" /><polygon fill="#4c9aff" points="634,122 638,118 638,74.23106409864945 634,78.23106409864945" /><polygon fill="#53a9ff" points="634,4.789006571242297 646,4.789006571242297 650,0.7890065712422967 638,0.7890065712422967" /><polygon fill="#448ae5" points="646,50 650,46 650,0.7890065712422967 646,4.789006571242297" /><polygon fill="#4c9aff" points="634,50 638,46 638,0.7890065712422967 634,4.789006571242297" /><polygon fill="#53a9ff" points="634,17.228890791542604 646,17.228890791542604 650,13.228890791542604 638,13.228890791542604" /><polygon fill="#448ae5" points="646,62 650,58 650,13.228890791542604 646,17.228890791542604" /><polygon fill="#4c9aff" points="634,62 638,58 638,13.228890791542604 634,17.228890791542604" /></svg>